<svg width="15" height="18" viewBox="0 0 15 18" fill="none" xmlns="http://www.w3.org/2000/svg">
<path d="M8.90625 9.53125C9.0625 9.40625 9.15625 9.21875 9.15625 9C9.15625 8.8125 9.0625 8.625 8.90625 8.46875L2.84375 2.40625C2.6875 2.28125 2.5 2.1875 2.3125 2.1875C2.09375 2.1875 1.90625 2.28125 1.78125 2.40625L1.09375 3.09375C0.9375 3.25 0.84375 3.4375 0.84375 3.625C0.84375 3.84375 0.90625 4.03125 1.0625 4.15625L5.90625 9L1.0625 13.8438C0.90625 14 0.84375 14.1875 0.84375 14.375C0.84375 14.5938 0.9375 14.7812 1.09375 14.9062L1.78125 15.5938C1.90625 15.75 2.09375 15.8125 2.3125 15.8125C2.5 15.8125 2.6875 15.75 2.84375 15.5938L8.90625 9.53125Z" fill="#3B95E5"/>
<path d="M13.9062 9.53125C14.0625 9.40625 14.1562 9.21875 14.1562 9C14.1562 8.8125 14.0625 8.625 13.9062 8.46875L7.84375 2.40625C7.6875 2.28125 7.5 2.1875 7.3125 2.1875C7.09375 2.1875 6.90625 2.28125 6.78125 2.40625L6.09375 3.09375C5.9375 3.25 5.84375 3.4375 5.84375 3.625C5.84375 3.84375 5.90625 4.03125 6.0625 4.15625L10.9062 9L6.0625 13.8438C5.90625 14 5.84375 14.1875 5.84375 14.375C5.84375 14.5938 5.9375 14.7812 6.09375 14.9062L6.78125 15.5938C6.90625 15.75 7.09375 15.8125 7.3125 15.8125C7.5 15.8125 7.6875 15.75 7.84375 15.5938L13.9062 9.53125Z" fill="#3B95E5"/>
</svg>
