<svg xmlns="http://www.w3.org/2000/svg" viewBox="0 0 616.66 298.72"><defs><style>.cls-1{isolation:isolate;}.cls-2{fill:#bcd8ed;mix-blend-mode:multiply;}.cls-3{fill:#3b95e5;}</style></defs><title>Asset 19</title><g class="cls-1"><g id="Layer_2" data-name="Layer 2"><g id="Layer_1-2" data-name="Layer 1"><circle class="cls-2" cx="144.37" cy="120.39" r="120.39"/><path class="cls-3" d="M190.32,99.77H130.47L105.7,77.63v50.42A65.55,65.55,0,0,1,62.84,189.4c-1.24.45-2.53.88-3.82,1.26-1,.28-2,.6-3,1a95.61,95.61,0,0,0-36.36,24.61C2.23,235.18,0,260.56,0,280.55v18.17H22.79l1.65-5.25c7-22.26,26.83-33.08,60.7-33.08a79.86,79.86,0,0,0,31-6.18c.88-.37,1.75-.76,2.62-1.16a95.21,95.21,0,0,0-4,27.5v16.52h15V280.55a79.45,79.45,0,0,1,14.77-46.32,79.33,79.33,0,0,0,6.46-8c1.5-2.14,2.9-4.34,4.15-6.56a80.5,80.5,0,0,0,5.15-68.17l30.12-32.37Zm-47.8,48.68L144.6,153A65.44,65.44,0,0,1,142,212.23c-1,1.81-2.16,3.61-3.38,5.35a64.29,64.29,0,0,1-5.55,6.86,65,65,0,0,1-47.94,21c-18.46,0-33.28,2.88-45.32,8.8A55.57,55.57,0,0,0,15,277.5c.36-24.23,5.1-39.62,15.64-51.09a80.54,80.54,0,0,1,30.63-20.73c.62-.23,1.33-.45,2-.65,1.59-.47,3.17-1,4.71-1.56a80.05,80.05,0,0,0,37.87-28.93,79.73,79.73,0,0,0,14.82-46.49V114.76h53.17Z"/><path class="cls-3" d="M305.29,122.57a26.12,26.12,0,0,1-10.49-9.78,28.64,28.64,0,0,1,0-28.51,26.12,26.12,0,0,1,10.49-9.78,32,32,0,0,1,15-3.5A33,33,0,0,1,334,73.71,25.39,25.39,0,0,1,344,81.53l-11.21,10q-4.89-6.17-11.51-6.17a11.76,11.76,0,0,0-8.95,3.57q-3.39,3.59-3.39,9.59c0,4,1.13,7.21,3.39,9.6a11.76,11.76,0,0,0,8.95,3.57q6.61,0,11.51-6.17l11.21,10a25.48,25.48,0,0,1-9.93,7.82,33,33,0,0,1-13.69,2.71A32,32,0,0,1,305.29,122.57Z"/><path class="cls-3" d="M360.28,122.53a27,27,0,0,1,0-48,34.73,34.73,0,0,1,30.55,0,27,27,0,0,1,0,48,34.73,34.73,0,0,1-30.55,0Zm21.26-12.45a11.73,11.73,0,0,0,4.25-4.59,16.1,16.1,0,0,0,0-13.91A11.66,11.66,0,0,0,381.54,87a11.87,11.87,0,0,0-12,0,11.59,11.59,0,0,0-4.25,4.59,16.1,16.1,0,0,0,0,13.91,11.65,11.65,0,0,0,4.25,4.59,11.87,11.87,0,0,0,12,0Z"/><path class="cls-3" d="M440.78,105.76v19.1H423V105.53L403.16,72.2H421.9l10.75,18.21L443.49,72.2h17.15Z"/><path class="cls-3" d="M473,122.53a27,27,0,0,1,0-48,34.73,34.73,0,0,1,30.55,0,27,27,0,0,1,0,48,34.73,34.73,0,0,1-30.55,0Zm21.26-12.45a11.65,11.65,0,0,0,4.25-4.59,16.1,16.1,0,0,0,0-13.91A11.59,11.59,0,0,0,494.23,87a11.87,11.87,0,0,0-12,0A11.59,11.59,0,0,0,478,91.58a16.1,16.1,0,0,0,0,13.91,11.65,11.65,0,0,0,4.25,4.59,11.87,11.87,0,0,0,12,0Z"/><path class="cls-3" d="M535.11,86H519.69V72.2h48.6V86H552.87v38.89H535.11Z"/><path class="cls-3" d="M616.66,111.47v13.39H572.88V72.2h42.8V85.59H590.33v6.17H612.6v12.79H590.33v6.92Z"/><path class="cls-3" d="M306.87,146.74a20.93,20.93,0,0,1,5.3.63,11.45,11.45,0,0,1,3.88,1.72,3,3,0,0,1,1.47,2.35,1.87,1.87,0,0,1-.45,1.17,1.37,1.37,0,0,1-1.11.57,1.92,1.92,0,0,1-1.23-.36,6.29,6.29,0,0,1-.88-.84,4.27,4.27,0,0,0-1.26-.91,10.87,10.87,0,0,0-2.26-.66,16.43,16.43,0,0,0-3.28-.3A11.23,11.23,0,0,0,301,151.8a12.1,12.1,0,0,0-4.27,4.54,13.16,13.16,0,0,0-1.56,6.41,14.13,14.13,0,0,0,1.47,6.5,11.18,11.18,0,0,0,4.15,4.54,11.45,11.45,0,0,0,6.17,1.66,13.19,13.19,0,0,0,3.76-.42,10.27,10.27,0,0,0,2.26-1,6,6,0,0,0,1.72-1.29,1.65,1.65,0,0,1,1.35-.63,1.48,1.48,0,0,1,1.14.45,1.65,1.65,0,0,1,.42,1.17,3.11,3.11,0,0,1-1.41,2.14,12.73,12.73,0,0,1-3.88,2,17.2,17.2,0,0,1-5.72.87A14.36,14.36,0,0,1,293.42,171a17.6,17.6,0,0,1-1.9-8.22,16.75,16.75,0,0,1,1.93-8,15.28,15.28,0,0,1,5.36-5.81A14.55,14.55,0,0,1,306.87,146.74Z"/><path class="cls-3" d="M352.91,162.81a16.63,16.63,0,0,1-2,8.22,15,15,0,0,1-5.44,5.71,15.48,15.48,0,0,1-15.5,0,15,15,0,0,1-5.48-5.71,17.87,17.87,0,0,1,0-16.47,15.33,15.33,0,0,1,5.48-5.71,15.29,15.29,0,0,1,15.5,0,15.31,15.31,0,0,1,5.44,5.71A16.59,16.59,0,0,1,352.91,162.81Zm-3.61,0a13.85,13.85,0,0,0-1.5-6.53,11.68,11.68,0,0,0-4.13-4.51,10.9,10.9,0,0,0-6-1.66,10.78,10.78,0,0,0-5.92,1.66,11.91,11.91,0,0,0-4.16,4.51,13.63,13.63,0,0,0-1.53,6.53,13.45,13.45,0,0,0,1.53,6.5,11.89,11.89,0,0,0,4.16,4.48,10.78,10.78,0,0,0,5.92,1.66,10.9,10.9,0,0,0,6-1.66,11.67,11.67,0,0,0,4.13-4.48A13.67,13.67,0,0,0,349.3,162.81Z"/><path class="cls-3" d="M374.82,146.74a11.21,11.21,0,0,1,6.35,1.6,9,9,0,0,1,3.43,4.33,16.78,16.78,0,0,1,1,6.05v17.69a1.73,1.73,0,0,1-.54,1.26,1.71,1.71,0,0,1-1.27.55,1.65,1.65,0,0,1-1.32-.55,1.84,1.84,0,0,1-.48-1.26V158.9a11.87,11.87,0,0,0-.78-4.39,6.81,6.81,0,0,0-2.56-3.19,8.13,8.13,0,0,0-4.67-1.21,10.91,10.91,0,0,0-8.66,4.4,7.23,7.23,0,0,0-1.45,4.39v17.51a1.73,1.73,0,0,1-.54,1.26,1.7,1.7,0,0,1-1.26.55,1.67,1.67,0,0,1-1.33-.55,1.84,1.84,0,0,1-.48-1.26v-27a1.78,1.78,0,0,1,.51-1.26,1.69,1.69,0,0,1,1.3-.55,1.67,1.67,0,0,1,1.29.55,1.78,1.78,0,0,1,.51,1.26v5.06l-1.38,2.16a7.82,7.82,0,0,1,1.23-3.7,13,13,0,0,1,2.86-3.19,14.25,14.25,0,0,1,3.88-2.23A12.09,12.09,0,0,1,374.82,146.74Z"/><path class="cls-3" d="M393.11,147.58h14a1.62,1.62,0,0,1,1.21.51,1.77,1.77,0,0,1,.48,1.24,1.56,1.56,0,0,1-.48,1.14,1.64,1.64,0,0,1-1.21.48h-14a1.68,1.68,0,0,1-1.23-.51,1.61,1.61,0,0,1-.51-1.17,1.58,1.58,0,0,1,.51-1.2A1.7,1.7,0,0,1,393.11,147.58Zm6.2-8.48a1.7,1.7,0,0,1,1.29.54,1.79,1.79,0,0,1,.52,1.26v30.22a5.51,5.51,0,0,0,.45,2.52,2.22,2.22,0,0,0,1.17,1.12,4.08,4.08,0,0,0,1.44.27,2.42,2.42,0,0,0,.88-.15,2.41,2.41,0,0,1,.87-.15,1.23,1.23,0,0,1,.93.42,1.52,1.52,0,0,1,.39,1.08,1.67,1.67,0,0,1-1,1.42,4.4,4.4,0,0,1-2.29.57q-.54,0-1.62-.09a6.15,6.15,0,0,1-2.23-.66,4.49,4.49,0,0,1-1.89-2,9.21,9.21,0,0,1-.75-4.15V140.9a1.78,1.78,0,0,1,.51-1.26A1.7,1.7,0,0,1,399.31,139.1Z"/><path class="cls-3" d="M417.3,178.22a1.65,1.65,0,0,1-1.32-.55,1.84,1.84,0,0,1-.48-1.26v-27a1.78,1.78,0,0,1,.51-1.26,1.8,1.8,0,0,1,2.59,0,1.78,1.78,0,0,1,.51,1.26v9l-.9.18a13.87,13.87,0,0,1,1.05-4.19,14.27,14.27,0,0,1,2.38-3.82,12.09,12.09,0,0,1,3.58-2.83,9.94,9.94,0,0,1,4.66-1.08,5.2,5.2,0,0,1,2.11.45,1.53,1.53,0,0,1,1,1.48,1.87,1.87,0,0,1-.48,1.38,1.56,1.56,0,0,1-1.14.48,2.82,2.82,0,0,1-1.18-.3,3.86,3.86,0,0,0-1.65-.3,6.58,6.58,0,0,0-3.37,1,11.68,11.68,0,0,0-3.07,2.68,14,14,0,0,0-2.2,3.76,11.47,11.47,0,0,0-.81,4.19v14.86a1.73,1.73,0,0,1-.54,1.26A1.71,1.71,0,0,1,417.3,178.22Z"/><path class="cls-3" d="M462.92,147.46a1.69,1.69,0,0,1,1.3.55,1.85,1.85,0,0,1,.51,1.32v27.08a1.73,1.73,0,0,1-.54,1.26,1.71,1.71,0,0,1-1.27.55,1.65,1.65,0,0,1-1.32-.55,1.84,1.84,0,0,1-.48-1.26v-7.16l1-.48a7.26,7.26,0,0,1-.93,3.43,12.47,12.47,0,0,1-2.56,3.25,13.35,13.35,0,0,1-3.82,2.44,12.16,12.16,0,0,1-4.78.93,12.94,12.94,0,0,1-7.26-2.11,14.45,14.45,0,0,1-5.05-5.78,18.06,18.06,0,0,1-1.84-8.24,17.61,17.61,0,0,1,1.87-8.28,14.49,14.49,0,0,1,5.05-5.62,13.13,13.13,0,0,1,15.95,1.32,12,12,0,0,1,2.65,3.58,9.65,9.65,0,0,1,1,4.19l-1.26-.91v-7.64a1.92,1.92,0,0,1,.48-1.32A1.65,1.65,0,0,1,462.92,147.46Zm-12.51,28a9.85,9.85,0,0,0,5.65-1.66,11.18,11.18,0,0,0,3.88-4.57,14.69,14.69,0,0,0,1.42-6.53,14,14,0,0,0-1.42-6.38,11.53,11.53,0,0,0-3.88-4.51,9.73,9.73,0,0,0-5.65-1.69,10,10,0,0,0-5.63,1.63,11,11,0,0,0-3.91,4.45,14.26,14.26,0,0,0-1.42,6.5,15,15,0,0,0,1.39,6.53,10.88,10.88,0,0,0,3.88,4.57A10,10,0,0,0,450.41,175.45Z"/><path class="cls-3" d="M487.48,146.74a20.85,20.85,0,0,1,5.29.63,11.51,11.51,0,0,1,3.89,1.72,3,3,0,0,1,1.47,2.35,1.87,1.87,0,0,1-.45,1.17,1.37,1.37,0,0,1-1.11.57,1.93,1.93,0,0,1-1.24-.36,6.83,6.83,0,0,1-.87-.84,4.27,4.27,0,0,0-1.26-.91,11.06,11.06,0,0,0-2.26-.66,16.5,16.5,0,0,0-3.28-.3,11.23,11.23,0,0,0-6.08,1.69,12,12,0,0,0-4.27,4.54,13.06,13.06,0,0,0-1.57,6.41,14,14,0,0,0,1.48,6.5,11.11,11.11,0,0,0,4.15,4.54,11.42,11.42,0,0,0,6.17,1.66,13.24,13.24,0,0,0,3.76-.42,10.71,10.71,0,0,0,2.26-1,5.81,5.81,0,0,0,1.71-1.29,1.66,1.66,0,0,1,1.36-.63,1.48,1.48,0,0,1,1.14.45,1.65,1.65,0,0,1,.42,1.17,3.11,3.11,0,0,1-1.41,2.14,12.8,12.8,0,0,1-3.89,2,17.13,17.13,0,0,1-5.71.87A14.33,14.33,0,0,1,474,171a17.48,17.48,0,0,1-1.9-8.22,16.63,16.63,0,0,1,1.93-8,15.34,15.34,0,0,1,5.35-5.81A14.61,14.61,0,0,1,487.48,146.74Z"/><path class="cls-3" d="M503.13,147.58h14a1.62,1.62,0,0,1,1.2.51,1.77,1.77,0,0,1,.48,1.24,1.56,1.56,0,0,1-.48,1.14,1.63,1.63,0,0,1-1.2.48h-14a1.68,1.68,0,0,1-1.24-.51,1.61,1.61,0,0,1-.51-1.17,1.58,1.58,0,0,1,.51-1.2A1.7,1.7,0,0,1,503.13,147.58Zm6.19-8.48a1.7,1.7,0,0,1,1.3.54,1.78,1.78,0,0,1,.51,1.26v30.22a5.51,5.51,0,0,0,.45,2.52,2.22,2.22,0,0,0,1.17,1.12,4.17,4.17,0,0,0,1.45.27,2.41,2.41,0,0,0,.87-.15,2.41,2.41,0,0,1,.87-.15,1.25,1.25,0,0,1,.94.42,1.52,1.52,0,0,1,.39,1.08,1.66,1.66,0,0,1-1,1.42,4.38,4.38,0,0,1-2.28.57c-.36,0-.9,0-1.63-.09a6.1,6.1,0,0,1-2.22-.66,4.46,4.46,0,0,1-1.9-2,9.21,9.21,0,0,1-.75-4.15V140.9a1.78,1.78,0,0,1,.51-1.26A1.7,1.7,0,0,1,509.32,139.1Z"/><path class="cls-3" d="M525,173.34a2.35,2.35,0,0,1-.45-1.41,1.36,1.36,0,0,1,.75-1.12,1.42,1.42,0,0,1,1.11-.36,1.92,1.92,0,0,1,1.18.6,12.78,12.78,0,0,0,3.94,3.41,11.14,11.14,0,0,0,5.51,1.29,10.24,10.24,0,0,0,3.34-.57,6.47,6.47,0,0,0,2.73-1.75,4.66,4.66,0,0,0,0-6,7.48,7.48,0,0,0-2.79-1.8,31.21,31.21,0,0,0-3.65-1.14c-1.36-.37-2.68-.78-4-1.24a14.12,14.12,0,0,1-3.4-1.74,8.78,8.78,0,0,1-2.38-2.56,7,7,0,0,1-.9-3.67,7.41,7.41,0,0,1,1.39-4.46,9.27,9.27,0,0,1,3.76-3,12.86,12.86,0,0,1,5.38-1.08,14.88,14.88,0,0,1,3.25.39,13.06,13.06,0,0,1,3.43,1.3,10.19,10.19,0,0,1,3,2.46,1.71,1.71,0,0,1,.55,1.24,1.63,1.63,0,0,1-.61,1.23,1.8,1.8,0,0,1-1.11.36,1.34,1.34,0,0,1-1-.48,9.75,9.75,0,0,0-3.43-2.47,10.89,10.89,0,0,0-4.28-.84,9.39,9.39,0,0,0-3.28.57,6.34,6.34,0,0,0-2.55,1.72,4.3,4.3,0,0,0-1,3,4.19,4.19,0,0,0,1.24,2.83,8.7,8.7,0,0,0,3,1.8,36.49,36.49,0,0,0,4.12,1.32,37.16,37.16,0,0,1,3.7,1.15,12.88,12.88,0,0,1,3.13,1.65,7.69,7.69,0,0,1,2.17,2.5,7.94,7.94,0,0,1,.81,3.79,7.29,7.29,0,0,1-1.48,4.58,9.4,9.4,0,0,1-3.94,3,14.19,14.19,0,0,1-5.48,1,16.06,16.06,0,0,1-6.28-1.27A13.42,13.42,0,0,1,525,173.34Z"/></g></g></g></svg>