<svg xmlns="http://www.w3.org/2000/svg" width="21" height="22" fill="none" viewBox="0 0 21 22">
  <path fill="#83CE76" d="M20.344 5.094c.422.468.656.984.656 1.593V19.25c0 .656-.234 1.172-.656 1.594-.469.468-.985.656-1.594.656H2.25c-.656 0-1.172-.188-1.594-.656C.187 20.422 0 19.906 0 19.25V2.75c0-.61.188-1.125.656-1.594A2.155 2.155 0 012.25.5h12.563c.609 0 1.124.234 1.593.656l3.938 3.938zM10.5 18.5c.844 0 1.547-.281 2.11-.844.562-.562.89-1.312.89-2.156 0-.844-.328-1.547-.89-2.11-.563-.562-1.266-.89-2.11-.89a3.01 3.01 0 00-2.156.89c-.563.563-.844 1.266-.844 2.11 0 .844.281 1.594.844 2.156.562.563 1.312.844 2.156.844zM15 4.203c0-.094-.094-.234-.188-.375l-.14-.14c-.14-.094-.281-.188-.375-.188H3.562a.594.594 0 00-.421.188.532.532 0 00-.141.374v4.875c0 .188.047.329.14.422.094.094.235.141.422.141h10.876c.14 0 .28-.047.374-.14A.594.594 0 0015 8.937V4.202z"/>
</svg>
