<svg xmlns="http://www.w3.org/2000/svg" width="24" height="24" fill="none" viewBox="0 0 24 24">
  <path fill="#6DB0ED" d="M23.672 8.063c.187.234.328.515.328.843 0 .375-.14.656-.328.844L9.844 23.625C9.609 23.906 9.328 24 9 24c-.375 0-.656-.094-.844-.375L.375 15.797C.094 15.609 0 15.328 0 14.953c0-.328.094-.61.375-.844l1.688-1.734a1.13 1.13 0 01.796-.328c.329 0 .61.14.891.328L9 17.672 20.25 6.375c.234-.234.516-.375.844-.375.328 0 .61.14.843.375l1.735 1.688zM7.828 13.265L2.062 7.453c-.187-.14-.234-.328-.234-.562 0-.235.047-.422.234-.61l1.97-1.968c.187-.141.374-.235.609-.235.187 0 .375.094.562.234l3.234 3.235 7.36-7.313A.776.776 0 0116.359 0c.235 0 .422.094.61.234l1.968 1.97c.141.187.235.421.235.655a.776.776 0 01-.235.563L9 13.266a.84.84 0 01-.61.234c-.234 0-.421-.047-.562-.234z"/>
</svg>
