<svg width="15" height="18" viewBox="0 0 15 18" fill="none" xmlns="http://www.w3.org/2000/svg">
<path d="M6.09375 8.46875C5.9375 8.59375 5.84375 8.78125 5.84375 9C5.84375 9.1875 5.9375 9.375 6.09375 9.53125L12.1562 15.5938C12.3125 15.7188 12.5 15.8125 12.6875 15.8125C12.9062 15.8125 13.0937 15.7188 13.2187 15.5938L13.9062 14.9063C14.0625 14.75 14.1562 14.5625 14.1562 14.375C14.1562 14.1563 14.0937 13.9688 13.9375 13.8438L9.09375 9L13.9375 4.15625C14.0937 4 14.1562 3.8125 14.1562 3.625C14.1562 3.40625 14.0625 3.21875 13.9062 3.09375L13.2187 2.40625C13.0937 2.25 12.9062 2.1875 12.6875 2.1875C12.5 2.1875 12.3125 2.25 12.1562 2.40625L6.09375 8.46875Z" fill="#3B95E5"/>
<path d="M1.09375 8.46875C0.937499 8.59375 0.843749 8.78125 0.843749 9C0.843749 9.1875 0.937499 9.375 1.09375 9.53125L7.15625 15.5938C7.3125 15.7188 7.5 15.8125 7.6875 15.8125C7.90625 15.8125 8.09375 15.7188 8.21875 15.5938L8.90625 14.9063C9.0625 14.75 9.15625 14.5625 9.15625 14.375C9.15625 14.1563 9.09375 13.9688 8.9375 13.8438L4.09375 9L8.9375 4.15625C9.09375 4 9.15625 3.8125 9.15625 3.625C9.15625 3.40625 9.0625 3.21875 8.90625 3.09375L8.21875 2.40625C8.09375 2.25 7.90625 2.1875 7.6875 2.1875C7.5 2.1875 7.3125 2.25 7.15625 2.40625L1.09375 8.46875Z" fill="#3B95E5"/>
</svg>
