<svg width="92" height="107" viewBox="0 0 92 107" fill="none" xmlns="http://www.w3.org/2000/svg">
<path d="M50.0772 86.2307C73.1403 86.2307 91.8366 66.9329 91.8366 43.1279C91.8366 19.3229 73.1403 0.0251465 50.0772 0.0251465C27.0142 0.0251465 8.31787 19.3229 8.31787 43.1279C8.31787 66.9329 27.0142 86.2307 50.0772 86.2307Z" fill="#6DB0ED"/>
<path d="M66.0158 35.7458H45.2558L36.6639 27.8191V45.8708C36.6534 50.6604 35.2234 55.332 32.5659 59.2583C29.9084 63.1847 26.1506 66.1778 21.7971 67.8357C21.367 67.9968 20.9196 68.1507 20.4721 68.2868C20.1252 68.387 19.7784 68.5016 19.4315 68.6448C14.6222 70.5322 10.3043 73.5488 6.81941 77.4558C0.773514 84.2261 0 93.3128 0 100.47V106.975H7.90511L8.47744 105.095C10.9055 97.1258 17.7839 93.252 29.5323 93.252C33.2236 93.2613 36.8795 92.509 40.2852 91.0394C40.5904 90.9069 40.8922 90.7673 41.194 90.624C40.2674 93.8182 39.8 97.1355 39.8065 100.47V106.384H45.0095V100.47C44.9964 94.5251 46.788 88.7255 50.1327 83.886C50.9389 82.9823 51.6874 82.0255 52.3735 81.0218C52.8938 80.2556 53.3794 79.4679 53.813 78.6731C55.8278 74.9895 57.0323 70.8933 57.341 66.6753C57.6497 62.4572 57.0551 58.2207 55.5994 54.2665L66.047 42.6772L66.0158 35.7458ZM49.4355 53.1745L50.157 54.8035C51.6345 58.162 52.3229 61.833 52.1662 65.5179C52.0095 69.2029 51.0121 72.7975 49.2552 76.0094C48.9083 76.6574 48.5059 77.3019 48.0827 77.9249C47.4963 78.7881 46.8531 79.6087 46.1576 80.3809C44.0421 82.7553 41.4714 84.6497 38.6088 85.944C35.7461 87.2384 32.654 87.9042 29.5288 87.8995C23.1256 87.8995 17.9851 88.9306 13.8088 91.0501C10.1675 92.8295 7.15795 95.7418 5.20301 99.3778C5.32788 90.7028 6.97203 85.1928 10.628 81.0862C13.5638 77.7951 17.2012 75.2541 21.2526 73.6643C21.4676 73.582 21.7139 73.5032 21.9463 73.4316C22.4978 73.2634 23.0459 73.0736 23.58 72.8731C28.8759 70.8771 33.4576 67.2644 36.7159 62.5154C40.0726 57.658 41.8703 51.8372 41.8565 45.8708V41.1126H60.2994L49.4355 53.1745Z" fill="white"/>
</svg>
