<svg xmlns="http://www.w3.org/2000/svg" viewBox="0 0 259.09 292.33"><defs><style>.cls-1{isolation:isolate;}.cls-2{fill:#bcd8ed;mix-blend-mode:multiply;}.cls-3{fill:#3b95e5;}</style></defs><title>Asset 20</title><g class="cls-1"><g id="Layer_2" data-name="Layer 2"><g id="Layer_1-2" data-name="Layer 1"><circle class="cls-2" cx="141.28" cy="117.81" r="117.81"/><path class="cls-3" d="M186.24,97.64H127.67L103.44,76v49.34a64.13,64.13,0,0,1-41.94,60c-1.22.45-2.48.87-3.74,1.24-.93.28-1.93.59-3,1A93.53,93.53,0,0,0,19.2,211.64C2.18,230.15,0,255,0,274.55v17.78H22.3l1.61-5.14c6.83-21.78,26.27-32.37,59.41-32.37a78.16,78.16,0,0,0,30.28-6c.87-.36,1.72-.75,2.57-1.14a92.94,92.94,0,0,0-4,26.92v16.16h14.67V274.55a77.7,77.7,0,0,1,14.46-45.33,78.82,78.82,0,0,0,6.33-7.88c1.46-2.09,2.82-4.25,4-6.42a78.75,78.75,0,0,0,5-66.71l29.47-31.68Zm-46.77,47.63,2,4.46a64.05,64.05,0,0,1-2.54,58c-1,1.77-2.11,3.53-3.31,5.23a63.8,63.8,0,0,1-52.34,27.23c-18.06,0-32.57,2.82-44.35,8.61a54.4,54.4,0,0,0-24.28,22.8c.35-23.71,5-38.77,15.31-50a78.81,78.81,0,0,1,30-20.28c.61-.23,1.3-.44,2-.64,1.56-.46,3.11-1,4.61-1.52a78.6,78.6,0,0,0,51.57-73.81v-13h52Z"/></g></g></g></svg>