<svg xmlns="http://www.w3.org/2000/svg" width="17" height="24" fill="none" viewBox="0 0 17 24">
  <path fill="#6DB0ED" d="M8.469 0c1.312 0 2.625.328 3.89.984 1.266.657 2.297 1.5 3.094 2.532.844 1.171 1.266 2.39 1.266 3.703 0 1.031-.235 1.968-.657 2.718a6.145 6.145 0 01-1.546 1.782c-.422.328-1.032.703-1.829 1.172-.656.375-1.124.656-1.312.843-.375.329-.563.657-.563.985V15c0 .328-.14.61-.328.797a1.098 1.098 0 01-.796.328H6.312c-.328 0-.609-.094-.796-.328-.235-.188-.329-.469-.329-.797v-.469c0-1.219.375-2.297 1.22-3.187.468-.469 1.312-1.078 2.53-1.735l.094-.046c.844-.47 1.406-.844 1.688-1.126.375-.374.61-.796.61-1.265 0-.656-.376-1.219-1.079-1.688a4.01 4.01 0 00-2.156-.656c-.844 0-1.594.234-2.156.61-.47.328-1.079.89-1.735 1.687a1.095 1.095 0 01-.75.469c-.281.047-.562-.047-.797-.235L.641 5.813a1.008 1.008 0 01-.47-.704c-.046-.28.048-.562.235-.843.985-1.407 2.11-2.438 3.328-3.141C5.047.375 6.641 0 8.47 0zM8 17.484c.89 0 1.64.328 2.297.985.61.656.937 1.406.937 2.297 0 .89-.328 1.64-.937 2.297C9.64 23.718 8.89 24 8 24c-.938 0-1.688-.281-2.297-.938-.656-.656-.937-1.406-.937-2.296 0-.891.28-1.641.937-2.297.61-.657 1.36-.985 2.297-.985z"/>
</svg>
