<svg xmlns="http://www.w3.org/2000/svg" width="24" height="24" fill="none" viewBox="0 0 24 24">
  <path fill="#DC6B6B" d="M12 .375c2.063 0 4.031.563 5.813 1.594a11.385 11.385 0 014.218 4.218c1.032 1.782 1.594 3.75 1.594 5.813 0 2.11-.563 4.031-1.594 5.813-1.031 1.78-2.437 3.234-4.218 4.265A11.482 11.482 0 0112 23.625c-1.5 0-2.906-.234-4.219-.797a11.104 11.104 0 01-3.562-2.203c-.14-.094-.188-.188-.188-.375 0-.188.047-.328.14-.422l1.876-1.875c.094-.094.187-.14.375-.14.14 0 .281 0 .375.093a7.1 7.1 0 002.39 1.5c.891.328 1.829.469 2.813.469 1.406 0 2.719-.328 3.938-1.031a7.613 7.613 0 002.859-2.86c.703-1.218 1.078-2.53 1.078-3.937a7.941 7.941 0 00-1.078-3.985c-.75-1.218-1.688-2.156-2.906-2.859-1.22-.703-2.532-1.078-3.938-1.078a7.64 7.64 0 00-2.906.563 7.719 7.719 0 00-2.438 1.546l1.97 1.97c.187.233.327.515.327.796 0 .328-.14.61-.328.797a1.098 1.098 0 01-.797.328H1.5c-.328 0-.61-.094-.797-.328C.47 9.609.375 9.328.375 9V2.719c0-.281.094-.563.328-.797a1.13 1.13 0 01.797-.328c.281 0 .563.14.797.328l1.687 1.687a10.756 10.756 0 013.657-2.39C9 .656 10.453.375 12 .375z"/>
</svg>
