<svg width="43" height="7" viewBox="0 0 43 7" fill="none" xmlns="http://www.w3.org/2000/svg">
<path d="M1.08575 0.202288C1.40825 0.195159 1.72922 0.248776 2.03189 0.360342C2.32914 0.479564 2.61668 0.621695 2.89192 0.785452L6.34294 4.07406V0.202288H8.50337V6.99969C8.17787 7.00204 7.85251 6.98566 7.52889 6.95064C7.2791 6.92257 7.03355 6.86475 6.79748 6.77841C6.57305 6.69334 6.36084 6.57899 6.16636 6.43832C5.93032 6.26623 5.70533 6.07947 5.49272 5.87914L2.33165 2.98294V6.90703H0.196289V0.202288H1.08575Z" fill="#959595"/>
<path d="M16.7648 0.20166V1.96968H11.3049V5.25829H16.7648V6.90314H10.6607C10.5036 6.89988 10.3483 6.86926 10.2018 6.81266C10.0355 6.75215 9.87791 6.67006 9.73304 6.5685C9.59415 6.4739 9.47 6.3593 9.36461 6.22841C9.27284 6.12376 9.22042 5.99039 9.21637 5.85126V1.25353C9.22654 1.11656 9.28805 0.988485 9.38859 0.894916C9.51272 0.762942 9.65428 0.648524 9.80934 0.554828C9.9768 0.452326 10.1543 0.367224 10.3391 0.300852C10.4949 0.23983 10.6601 0.20627 10.8274 0.20166H16.7648ZM11.7834 2.8308H16.2765V4.40807H11.7834V2.8308Z" fill="#959595"/>
<path d="M17.49 4.93296H19.5076L19.8237 5.25996H23.3609C23.4492 5.25996 23.5004 5.23489 23.5135 5.18366C23.5255 5.13368 23.5318 5.08247 23.532 5.03106V4.67462C23.5323 4.61281 23.5212 4.55147 23.4993 4.49368C23.4889 4.4661 23.4697 4.44273 23.4447 4.42716C23.4197 4.4116 23.3902 4.40471 23.3609 4.40756H19.1828C19.0321 4.3977 18.8844 4.36077 18.7468 4.29856C18.5643 4.22665 18.3884 4.13874 18.2214 4.03587C18.0609 3.93998 17.9117 3.82626 17.7767 3.69687C17.7234 3.65517 17.6791 3.60318 17.6463 3.54401C17.6135 3.48484 17.593 3.41969 17.5859 3.35242V1.25303C17.5938 1.12917 17.6391 1.01061 17.7156 0.912943C17.8131 0.777583 17.9343 0.660903 18.0732 0.568495C18.2448 0.455263 18.4316 0.366825 18.628 0.305799C18.8632 0.231812 19.1085 0.195034 19.355 0.196796H24.0301C24.2755 0.190306 24.5186 0.246188 24.7365 0.35921C24.9283 0.461766 25.095 0.605443 25.2248 0.77996C25.353 0.953751 25.4483 1.14955 25.506 1.35767C25.5661 1.56456 25.5969 1.77883 25.5976 1.99425V2.29945H23.6759L23.3412 1.96482H19.8172C19.8001 1.9642 19.783 1.9673 19.7672 1.97388C19.7514 1.98047 19.7372 1.99039 19.7256 2.00297C19.7033 2.02974 19.687 2.06095 19.6777 2.09453C19.6685 2.13014 19.6637 2.16675 19.6635 2.20353V2.37467C19.6635 2.41391 19.6635 2.4586 19.669 2.50874C19.672 2.56016 19.6849 2.6105 19.7071 2.65698C19.7309 2.70674 19.7688 2.74843 19.8161 2.77689C19.8754 2.81163 19.9436 2.8283 20.0123 2.82485H24.343C24.481 2.83137 24.6155 2.8706 24.7354 2.9393C24.8822 3.01614 25.02 3.10899 25.1463 3.21617C25.2681 3.31813 25.3778 3.4337 25.4733 3.56061C25.5459 3.65233 25.5882 3.76431 25.5943 3.88108V5.85076C25.593 5.9949 25.5478 6.13522 25.4646 6.25298C25.3735 6.38592 25.2568 6.49932 25.1213 6.58652C24.9661 6.68765 24.7967 6.76516 24.6188 6.81652C24.4268 6.87428 24.2273 6.9033 24.0269 6.90263H19.0389C18.7695 6.91371 18.5031 6.8418 18.2759 6.69662C18.082 6.56515 17.9212 6.39054 17.8061 6.18648C17.6922 5.98669 17.6098 5.7705 17.5619 5.54555C17.517 5.34436 17.4929 5.13908 17.49 4.93296V4.93296Z" fill="#959595"/>
<path d="M31.1528 6.90314H28.9728V1.84542H26.3131V0.20166H33.8855V1.84542H31.1528V6.90314Z" fill="#959595"/>
<path d="M39.3153 0.192106L42.7074 6.90339H40.4511L39.9344 5.9954H35.7879L36.6959 4.34074H39.0384L37.8622 1.98956C37.7347 2.00809 37.6344 2.02117 37.5614 2.02771C37.4786 2.03867 37.4018 2.07704 37.3434 2.13671L34.7644 6.90339H32.4753L35.3334 1.53066C35.4049 1.46589 35.4657 1.39008 35.5132 1.30611C35.5274 1.26544 35.55 1.22827 35.5797 1.19711C35.7643 1.02489 35.9333 0.875188 36.0866 0.748019C36.2322 0.624992 36.3926 0.520632 36.564 0.437362C36.7377 0.35498 36.9207 0.29386 37.109 0.255327C37.3374 0.210702 37.5697 0.189518 37.8023 0.192106H39.3153Z" fill="#959595"/>
</svg>
