<svg xmlns="http://www.w3.org/2000/svg" width="17" height="18" fill="none" viewBox="0 0 17 18">
  <path fill="#DC6B6B" d="M11.64 9l4.688 4.688c.281.28.422.656.422 1.03 0 .423-.14.798-.422 1.079l-1.031 1.031a1.651 1.651 0 01-1.078.422c-.422 0-.75-.14-1.031-.422L8.5 12.141l-4.688 4.687a1.454 1.454 0 01-1.03.422c-.423 0-.798-.14-1.079-.422L.672 15.797C.39 15.516.25 15.14.25 14.719c0-.375.14-.75.422-1.031L5.359 9 .672 4.312a1.378 1.378 0 01-.422-1.03c0-.376.14-.75.422-1.079l1.031-1.031C1.984.89 2.36.75 2.781.75c.375 0 .75.14 1.031.422L8.5 5.859l4.688-4.687c.28-.281.609-.422 1.03-.422.376 0 .75.14 1.079.422l1.031 1.031c.281.328.422.703.422 1.078 0 .422-.14.75-.422 1.031L11.641 9z"/>
</svg>
